<svg width="24" height="24" viewBox="0 0 24 24" fill="none" xmlns="http://www.w3.org/2000/svg">
  <circle cx="12" cy="12" r="11" fill="#E8F6FF"/>
  <circle cx="12" cy="12" r="9" fill="#42B8E8"/>
  <path d="M7.8 15.5c1.1 1.3 2.5 2 4.2 2s3.1-.7 4.2-2" stroke="#052B44" stroke-width="1.5" stroke-linecap="round"/>
  <path d="M7.5 11.5c.8-2.4 2.3-3.7 4.5-3.7s3.7 1.3 4.5 3.7" fill="#FFFFFF"/>
  <circle cx="9.4" cy="12.1" r="1.2" fill="#052B44"/>
  <circle cx="14.6" cy="12.1" r="1.2" fill="#052B44"/>
  <path d="M6.6 9.4c1.5-2.3 3.3-3.5 5.4-3.5 2 0 3.8 1.2 5.4 3.5" stroke="#052B44" stroke-width="1.3" stroke-linecap="round"/>
  <path d="M8 6.4 6.9 4.6M16 6.4l1.1-1.8" stroke="#052B44" stroke-width="1.3" stroke-linecap="round"/>
</svg>
