<svg width="24" height="24" viewBox="0 0 24 24" fill="none" xmlns="http://www.w3.org/2000/svg">
  <path d="M10.4 3.6a1.7 1.7 0 0 1 3.2 0l.3 1.1c.1.4.5.7.9.9l1.1.4c.5.2 1 .1 1.4-.2l1-.6a1.7 1.7 0 0 1 2.2 2.2l-.6 1c-.3.4-.3.9-.2 1.4l.4 1.1c.1.4.5.7.9.9l1.1.3a1.7 1.7 0 0 1 0 3.2l-1.1.3c-.4.1-.7.5-.9.9l-.4 1.1c-.2.5-.1 1 .2 1.4l.6 1a1.7 1.7 0 0 1-2.2 2.2l-1-.6c-.4-.3-.9-.3-1.4-.2l-1.1.4c-.4.1-.7.5-.9.9l-.3 1.1a1.7 1.7 0 0 1-3.2 0l-.3-1.1c-.1-.4-.5-.7-.9-.9l-1.1-.4c-.5-.2-1-.1-1.4.2l-1 .6a1.7 1.7 0 0 1-2.2-2.2l.6-1c.3-.4.3-.9.2-1.4l-.4-1.1c-.1-.4-.5-.7-.9-.9l-1.1-.3a1.7 1.7 0 0 1 0-3.2l1.1-.3c.4-.1.7-.5.9-.9l.4-1.1c.2-.5.1-1-.2-1.4l-.6-1a1.7 1.7 0 0 1 2.2-2.2l1 .6c.4.3.9.3 1.4.2l1.1-.4c.4-.1.7-.5.9-.9l.3-1.1Z" stroke="white" stroke-width="2" stroke-linejoin="round"/>
  <circle cx="12" cy="12" r="3" stroke="white" stroke-width="2"/>
</svg>
